G04 #@! TF.GenerationSoftware,KiCad,Pcbnew,(5.1.10)-1*
G04 #@! TF.CreationDate,2021-08-09T14:03:53+02:00*
G04 #@! TF.ProjectId,PSU,5053552e-6b69-4636-9164-5f7063625858,rev?*
G04 #@! TF.SameCoordinates,Original*
G04 #@! TF.FileFunction,Soldermask,Top*
G04 #@! TF.FilePolarity,Negative*
%FSLAX46Y46*%
G04 Gerber Fmt 4.6, Leading zero omitted, Abs format (unit mm)*
G04 Created by KiCad (PCBNEW (5.1.10)-1) date 2021-08-09 14:03:53*
%MOMM*%
%LPD*%
G01*
G04 APERTURE LIST*
%ADD10C,3.200000*%
%ADD11C,1.800000*%
%ADD12R,1.800000X1.800000*%
%ADD13C,3.000000*%
%ADD14R,3.000000X3.000000*%
%ADD15O,1.700000X1.700000*%
%ADD16R,1.700000X1.700000*%
%ADD17C,2.000000*%
G04 APERTURE END LIST*
D10*
X142500000Y-114000000D03*
X142500000Y-99000000D03*
X142500000Y-92000000D03*
X142500000Y-77000000D03*
G36*
G01*
X175350000Y-76549999D02*
X175350000Y-77450001D01*
G75*
G02*
X175100001Y-77700000I-249999J0D01*
G01*
X174399999Y-77700000D01*
G75*
G02*
X174150000Y-77450001I0J249999D01*
G01*
X174150000Y-76549999D01*
G75*
G02*
X174399999Y-76300000I249999J0D01*
G01*
X175100001Y-76300000D01*
G75*
G02*
X175350000Y-76549999I0J-249999D01*
G01*
G37*
G36*
G01*
X177350000Y-76549999D02*
X177350000Y-77450001D01*
G75*
G02*
X177100001Y-77700000I-249999J0D01*
G01*
X176399999Y-77700000D01*
G75*
G02*
X176150000Y-77450001I0J249999D01*
G01*
X176150000Y-76549999D01*
G75*
G02*
X176399999Y-76300000I249999J0D01*
G01*
X177100001Y-76300000D01*
G75*
G02*
X177350000Y-76549999I0J-249999D01*
G01*
G37*
G36*
G01*
X175350000Y-113299999D02*
X175350000Y-114200001D01*
G75*
G02*
X175100001Y-114450000I-249999J0D01*
G01*
X174399999Y-114450000D01*
G75*
G02*
X174150000Y-114200001I0J249999D01*
G01*
X174150000Y-113299999D01*
G75*
G02*
X174399999Y-113050000I249999J0D01*
G01*
X175100001Y-113050000D01*
G75*
G02*
X175350000Y-113299999I0J-249999D01*
G01*
G37*
G36*
G01*
X177350000Y-113299999D02*
X177350000Y-114200001D01*
G75*
G02*
X177100001Y-114450000I-249999J0D01*
G01*
X176399999Y-114450000D01*
G75*
G02*
X176150000Y-114200001I0J249999D01*
G01*
X176150000Y-113299999D01*
G75*
G02*
X176399999Y-113050000I249999J0D01*
G01*
X177100001Y-113050000D01*
G75*
G02*
X177350000Y-113299999I0J-249999D01*
G01*
G37*
D11*
X183040000Y-77000000D03*
D12*
X180500000Y-77000000D03*
D11*
X183040000Y-113750000D03*
D12*
X180500000Y-113750000D03*
D13*
X178900000Y-107250000D03*
X168700000Y-107250000D03*
X178900000Y-98550000D03*
X168700000Y-98550000D03*
D10*
X191750000Y-113750000D03*
X191750000Y-77000000D03*
X149500000Y-114000000D03*
X149500000Y-77000000D03*
D13*
X168700000Y-83450000D03*
X178900000Y-83450000D03*
X168700000Y-92150000D03*
X178900000Y-92150000D03*
D14*
X189500000Y-85000000D03*
D13*
X234500000Y-97800000D03*
X189500000Y-105800000D03*
X234500000Y-105800000D03*
D15*
X157250000Y-110120000D03*
X157250000Y-107580000D03*
X157250000Y-105040000D03*
D16*
X157250000Y-102500000D03*
D13*
X156750000Y-87830000D03*
D14*
X156750000Y-82750000D03*
D17*
X148670000Y-95500000D03*
X153750000Y-95500000D03*
M02*
