G04 #@! TF.GenerationSoftware,KiCad,Pcbnew,(5.1.10)-1*
G04 #@! TF.CreationDate,2021-08-09T14:03:53+02:00*
G04 #@! TF.ProjectId,PSU,5053552e-6b69-4636-9164-5f7063625858,rev?*
G04 #@! TF.SameCoordinates,Original*
G04 #@! TF.FileFunction,Copper,L2,Bot*
G04 #@! TF.FilePolarity,Positive*
%FSLAX46Y46*%
G04 Gerber Fmt 4.6, Leading zero omitted, Abs format (unit mm)*
G04 Created by KiCad (PCBNEW (5.1.10)-1) date 2021-08-09 14:03:53*
%MOMM*%
%LPD*%
G01*
G04 APERTURE LIST*
G04 #@! TA.AperFunction,ComponentPad*
%ADD10C,1.800000*%
G04 #@! TD*
G04 #@! TA.AperFunction,ComponentPad*
%ADD11R,1.800000X1.800000*%
G04 #@! TD*
G04 #@! TA.AperFunction,ComponentPad*
%ADD12C,3.000000*%
G04 #@! TD*
G04 #@! TA.AperFunction,ComponentPad*
%ADD13R,3.000000X3.000000*%
G04 #@! TD*
G04 #@! TA.AperFunction,ComponentPad*
%ADD14O,1.700000X1.700000*%
G04 #@! TD*
G04 #@! TA.AperFunction,ComponentPad*
%ADD15R,1.700000X1.700000*%
G04 #@! TD*
G04 #@! TA.AperFunction,ComponentPad*
%ADD16C,2.000000*%
G04 #@! TD*
G04 #@! TA.AperFunction,Conductor*
%ADD17C,1.000000*%
G04 #@! TD*
G04 #@! TA.AperFunction,Conductor*
%ADD18C,0.500000*%
G04 #@! TD*
G04 APERTURE END LIST*
D10*
X183040000Y-77000000D03*
D11*
X180500000Y-77000000D03*
D10*
X183040000Y-113750000D03*
D11*
X180500000Y-113750000D03*
D12*
X178900000Y-107250000D03*
X168700000Y-107250000D03*
X178900000Y-98550000D03*
X168700000Y-98550000D03*
X168700000Y-83450000D03*
X178900000Y-83450000D03*
X168700000Y-92150000D03*
X178900000Y-92150000D03*
D13*
X189500000Y-85000000D03*
D12*
X234500000Y-97800000D03*
X189500000Y-105800000D03*
X234500000Y-105800000D03*
D14*
X157250000Y-110120000D03*
X157250000Y-107580000D03*
X157250000Y-105040000D03*
D15*
X157250000Y-102500000D03*
D12*
X156750000Y-87830000D03*
D13*
X156750000Y-82750000D03*
D16*
X148670000Y-95500000D03*
X153750000Y-95500000D03*
D17*
X148670000Y-90830000D02*
X156750000Y-82750000D01*
X148670000Y-95500000D02*
X148670000Y-90830000D01*
X155550002Y-95500000D02*
X153750000Y-95500000D01*
X162350003Y-102300001D02*
X155550002Y-95500000D01*
X185750001Y-102300001D02*
X162350003Y-102300001D01*
X189500000Y-106050000D02*
X185750001Y-102300001D01*
X178900000Y-98800000D02*
X178900000Y-92400000D01*
X182350000Y-92400000D02*
X189500000Y-85250000D01*
X178900000Y-92400000D02*
X182350000Y-92400000D01*
X161320000Y-92400000D02*
X156750000Y-87830000D01*
X166400000Y-96500000D02*
X168700000Y-98800000D01*
X166400000Y-92400000D02*
X166400000Y-96500000D01*
X168700000Y-92400000D02*
X166400000Y-92400000D01*
X166400000Y-92400000D02*
X161320000Y-92400000D01*
X157250000Y-102500000D02*
X164250000Y-109500000D01*
X176650000Y-109500000D02*
X178900000Y-107250000D01*
X164250000Y-109500000D02*
X176650000Y-109500000D01*
D18*
X183040000Y-111390000D02*
X178900000Y-107250000D01*
X183040000Y-113750000D02*
X183040000Y-111390000D01*
M02*
