G04 #@! TF.GenerationSoftware,KiCad,Pcbnew,(5.1.10)-1*
G04 #@! TF.CreationDate,2021-08-09T14:03:53+02:00*
G04 #@! TF.ProjectId,PSU,5053552e-6b69-4636-9164-5f7063625858,rev?*
G04 #@! TF.SameCoordinates,Original*
G04 #@! TF.FileFunction,Copper,L1,Top*
G04 #@! TF.FilePolarity,Positive*
%FSLAX46Y46*%
G04 Gerber Fmt 4.6, Leading zero omitted, Abs format (unit mm)*
G04 Created by KiCad (PCBNEW (5.1.10)-1) date 2021-08-09 14:03:53*
%MOMM*%
%LPD*%
G01*
G04 APERTURE LIST*
G04 #@! TA.AperFunction,ComponentPad*
%ADD10C,1.800000*%
G04 #@! TD*
G04 #@! TA.AperFunction,ComponentPad*
%ADD11R,1.800000X1.800000*%
G04 #@! TD*
G04 #@! TA.AperFunction,ComponentPad*
%ADD12C,3.000000*%
G04 #@! TD*
G04 #@! TA.AperFunction,ComponentPad*
%ADD13R,3.000000X3.000000*%
G04 #@! TD*
G04 #@! TA.AperFunction,ComponentPad*
%ADD14O,1.700000X1.700000*%
G04 #@! TD*
G04 #@! TA.AperFunction,ComponentPad*
%ADD15R,1.700000X1.700000*%
G04 #@! TD*
G04 #@! TA.AperFunction,ComponentPad*
%ADD16C,2.000000*%
G04 #@! TD*
G04 #@! TA.AperFunction,Conductor*
%ADD17C,1.000000*%
G04 #@! TD*
G04 #@! TA.AperFunction,Conductor*
%ADD18C,0.500000*%
G04 #@! TD*
G04 APERTURE END LIST*
G04 #@! TA.AperFunction,SMDPad,CuDef*
G36*
G01*
X175350000Y-76549999D02*
X175350000Y-77450001D01*
G75*
G02*
X175100001Y-77700000I-249999J0D01*
G01*
X174399999Y-77700000D01*
G75*
G02*
X174150000Y-77450001I0J249999D01*
G01*
X174150000Y-76549999D01*
G75*
G02*
X174399999Y-76300000I249999J0D01*
G01*
X175100001Y-76300000D01*
G75*
G02*
X175350000Y-76549999I0J-249999D01*
G01*
G37*
G04 #@! TD.AperFunction*
G04 #@! TA.AperFunction,SMDPad,CuDef*
G36*
G01*
X177350000Y-76549999D02*
X177350000Y-77450001D01*
G75*
G02*
X177100001Y-77700000I-249999J0D01*
G01*
X176399999Y-77700000D01*
G75*
G02*
X176150000Y-77450001I0J249999D01*
G01*
X176150000Y-76549999D01*
G75*
G02*
X176399999Y-76300000I249999J0D01*
G01*
X177100001Y-76300000D01*
G75*
G02*
X177350000Y-76549999I0J-249999D01*
G01*
G37*
G04 #@! TD.AperFunction*
G04 #@! TA.AperFunction,SMDPad,CuDef*
G36*
G01*
X175350000Y-113299999D02*
X175350000Y-114200001D01*
G75*
G02*
X175100001Y-114450000I-249999J0D01*
G01*
X174399999Y-114450000D01*
G75*
G02*
X174150000Y-114200001I0J249999D01*
G01*
X174150000Y-113299999D01*
G75*
G02*
X174399999Y-113050000I249999J0D01*
G01*
X175100001Y-113050000D01*
G75*
G02*
X175350000Y-113299999I0J-249999D01*
G01*
G37*
G04 #@! TD.AperFunction*
G04 #@! TA.AperFunction,SMDPad,CuDef*
G36*
G01*
X177350000Y-113299999D02*
X177350000Y-114200001D01*
G75*
G02*
X177100001Y-114450000I-249999J0D01*
G01*
X176399999Y-114450000D01*
G75*
G02*
X176150000Y-114200001I0J249999D01*
G01*
X176150000Y-113299999D01*
G75*
G02*
X176399999Y-113050000I249999J0D01*
G01*
X177100001Y-113050000D01*
G75*
G02*
X177350000Y-113299999I0J-249999D01*
G01*
G37*
G04 #@! TD.AperFunction*
D10*
X183040000Y-77000000D03*
D11*
X180500000Y-77000000D03*
D10*
X183040000Y-113750000D03*
D11*
X180500000Y-113750000D03*
D12*
X178900000Y-107250000D03*
X168700000Y-107250000D03*
X178900000Y-98550000D03*
X168700000Y-98550000D03*
X168700000Y-83450000D03*
X178900000Y-83450000D03*
X168700000Y-92150000D03*
X178900000Y-92150000D03*
D13*
X189500000Y-85000000D03*
D12*
X234500000Y-97800000D03*
X189500000Y-105800000D03*
X234500000Y-105800000D03*
D14*
X157250000Y-110120000D03*
X157250000Y-107580000D03*
X157250000Y-105040000D03*
D15*
X157250000Y-102500000D03*
D12*
X156750000Y-87830000D03*
D13*
X156750000Y-82750000D03*
D16*
X148670000Y-95500000D03*
X153750000Y-95500000D03*
D17*
X157919999Y-109450001D02*
X157250000Y-110120000D01*
X234500000Y-105800000D02*
X230849999Y-109450001D01*
X155699999Y-106590001D02*
X157250000Y-105040000D01*
X155699999Y-108569999D02*
X155699999Y-106590001D01*
X157250000Y-110120000D02*
X155699999Y-108569999D01*
D18*
X174750000Y-109500000D02*
X174799999Y-109450001D01*
X174750000Y-113750000D02*
X174750000Y-109500000D01*
D17*
X174799999Y-109450001D02*
X157919999Y-109450001D01*
X230849999Y-109450001D02*
X174799999Y-109450001D01*
D18*
X172263998Y-77000000D02*
X163250000Y-86013998D01*
X174750000Y-77000000D02*
X172263998Y-77000000D01*
X163250000Y-99040000D02*
X157250000Y-105040000D01*
X163250000Y-86013998D02*
X163250000Y-99040000D01*
D17*
X175399999Y-86950001D02*
X178900000Y-83450000D01*
X175399999Y-100550001D02*
X175399999Y-86950001D01*
X173899999Y-102050001D02*
X173725000Y-102225000D01*
X230249999Y-102050001D02*
X173899999Y-102050001D01*
X234500000Y-97800000D02*
X230249999Y-102050001D01*
X173725000Y-102225000D02*
X175399999Y-100550001D01*
X168700000Y-107250000D02*
X173725000Y-102225000D01*
D18*
X176750000Y-113750000D02*
X180500000Y-113750000D01*
D17*
X165199999Y-99630001D02*
X157250000Y-107580000D01*
X165199999Y-86950001D02*
X165199999Y-99630001D01*
X168700000Y-83450000D02*
X165199999Y-86950001D01*
D18*
X178540001Y-81499999D02*
X183040000Y-77000000D01*
X170650001Y-81499999D02*
X178540001Y-81499999D01*
X168700000Y-83450000D02*
X170650001Y-81499999D01*
X176750000Y-77000000D02*
X180500000Y-77000000D01*
M02*
