G04 #@! TF.GenerationSoftware,KiCad,Pcbnew,(5.1.10)-1*
G04 #@! TF.CreationDate,2021-08-09T14:03:53+02:00*
G04 #@! TF.ProjectId,PSU,5053552e-6b69-4636-9164-5f7063625858,rev?*
G04 #@! TF.SameCoordinates,Original*
G04 #@! TF.FileFunction,Legend,Top*
G04 #@! TF.FilePolarity,Positive*
%FSLAX46Y46*%
G04 Gerber Fmt 4.6, Leading zero omitted, Abs format (unit mm)*
G04 Created by KiCad (PCBNEW (5.1.10)-1) date 2021-08-09 14:03:53*
%MOMM*%
%LPD*%
G01*
G04 APERTURE LIST*
%ADD10C,0.150000*%
%ADD11C,0.120000*%
%ADD12C,3.200000*%
%ADD13C,1.800000*%
%ADD14R,1.800000X1.800000*%
%ADD15C,3.000000*%
%ADD16R,3.000000X3.000000*%
%ADD17O,1.700000X1.700000*%
%ADD18R,1.700000X1.700000*%
%ADD19C,2.000000*%
G04 APERTURE END LIST*
D10*
X155940476Y-96202380D02*
X156511904Y-96202380D01*
X156226190Y-97202380D02*
X156226190Y-96202380D01*
X157321428Y-96202380D02*
X156845238Y-96202380D01*
X156797619Y-96678571D01*
X156845238Y-96630952D01*
X156940476Y-96583333D01*
X157178571Y-96583333D01*
X157273809Y-96630952D01*
X157321428Y-96678571D01*
X157369047Y-96773809D01*
X157369047Y-97011904D01*
X157321428Y-97107142D01*
X157273809Y-97154761D01*
X157178571Y-97202380D01*
X156940476Y-97202380D01*
X156845238Y-97154761D01*
X156797619Y-97107142D01*
X157988095Y-96202380D02*
X158083333Y-96202380D01*
X158178571Y-96250000D01*
X158226190Y-96297619D01*
X158273809Y-96392857D01*
X158321428Y-96583333D01*
X158321428Y-96821428D01*
X158273809Y-97011904D01*
X158226190Y-97107142D01*
X158178571Y-97154761D01*
X158083333Y-97202380D01*
X157988095Y-97202380D01*
X157892857Y-97154761D01*
X157845238Y-97107142D01*
X157797619Y-97011904D01*
X157750000Y-96821428D01*
X157750000Y-96583333D01*
X157797619Y-96392857D01*
X157845238Y-96297619D01*
X157892857Y-96250000D01*
X157988095Y-96202380D01*
X158940476Y-96202380D02*
X159035714Y-96202380D01*
X159130952Y-96250000D01*
X159178571Y-96297619D01*
X159226190Y-96392857D01*
X159273809Y-96583333D01*
X159273809Y-96821428D01*
X159226190Y-97011904D01*
X159178571Y-97107142D01*
X159130952Y-97154761D01*
X159035714Y-97202380D01*
X158940476Y-97202380D01*
X158845238Y-97154761D01*
X158797619Y-97107142D01*
X158750000Y-97011904D01*
X158702380Y-96821428D01*
X158702380Y-96583333D01*
X158750000Y-96392857D01*
X158797619Y-96297619D01*
X158845238Y-96250000D01*
X158940476Y-96202380D01*
X159702380Y-97202380D02*
X159702380Y-96535714D01*
X159702380Y-96630952D02*
X159750000Y-96583333D01*
X159845238Y-96535714D01*
X159988095Y-96535714D01*
X160083333Y-96583333D01*
X160130952Y-96678571D01*
X160130952Y-97202380D01*
X160130952Y-96678571D02*
X160178571Y-96583333D01*
X160273809Y-96535714D01*
X160416666Y-96535714D01*
X160511904Y-96583333D01*
X160559523Y-96678571D01*
X160559523Y-97202380D01*
X160988095Y-96916666D02*
X161464285Y-96916666D01*
X160892857Y-97202380D02*
X161226190Y-96202380D01*
X161559523Y-97202380D01*
X152988095Y-109750000D02*
X152892857Y-109702380D01*
X152750000Y-109702380D01*
X152607142Y-109750000D01*
X152511904Y-109845238D01*
X152464285Y-109940476D01*
X152416666Y-110130952D01*
X152416666Y-110273809D01*
X152464285Y-110464285D01*
X152511904Y-110559523D01*
X152607142Y-110654761D01*
X152750000Y-110702380D01*
X152845238Y-110702380D01*
X152988095Y-110654761D01*
X153035714Y-110607142D01*
X153035714Y-110273809D01*
X152845238Y-110273809D01*
X153464285Y-110702380D02*
X153464285Y-109702380D01*
X154035714Y-110702380D01*
X154035714Y-109702380D01*
X154511904Y-110702380D02*
X154511904Y-109702380D01*
X154750000Y-109702380D01*
X154892857Y-109750000D01*
X154988095Y-109845238D01*
X155035714Y-109940476D01*
X155083333Y-110130952D01*
X155083333Y-110273809D01*
X155035714Y-110464285D01*
X154988095Y-110559523D01*
X154892857Y-110654761D01*
X154750000Y-110702380D01*
X154511904Y-110702380D01*
X152988095Y-104500000D02*
X152892857Y-104452380D01*
X152750000Y-104452380D01*
X152607142Y-104500000D01*
X152511904Y-104595238D01*
X152464285Y-104690476D01*
X152416666Y-104880952D01*
X152416666Y-105023809D01*
X152464285Y-105214285D01*
X152511904Y-105309523D01*
X152607142Y-105404761D01*
X152750000Y-105452380D01*
X152845238Y-105452380D01*
X152988095Y-105404761D01*
X153035714Y-105357142D01*
X153035714Y-105023809D01*
X152845238Y-105023809D01*
X153464285Y-105452380D02*
X153464285Y-104452380D01*
X154035714Y-105452380D01*
X154035714Y-104452380D01*
X154511904Y-105452380D02*
X154511904Y-104452380D01*
X154750000Y-104452380D01*
X154892857Y-104500000D01*
X154988095Y-104595238D01*
X155035714Y-104690476D01*
X155083333Y-104880952D01*
X155083333Y-105023809D01*
X155035714Y-105214285D01*
X154988095Y-105309523D01*
X154892857Y-105404761D01*
X154750000Y-105452380D01*
X154511904Y-105452380D01*
X148488095Y-107952380D02*
X148488095Y-106952380D01*
X148726190Y-106952380D01*
X148869047Y-107000000D01*
X148964285Y-107095238D01*
X149011904Y-107190476D01*
X149059523Y-107380952D01*
X149059523Y-107523809D01*
X149011904Y-107714285D01*
X148964285Y-107809523D01*
X148869047Y-107904761D01*
X148726190Y-107952380D01*
X148488095Y-107952380D01*
X150059523Y-107857142D02*
X150011904Y-107904761D01*
X149869047Y-107952380D01*
X149773809Y-107952380D01*
X149630952Y-107904761D01*
X149535714Y-107809523D01*
X149488095Y-107714285D01*
X149440476Y-107523809D01*
X149440476Y-107380952D01*
X149488095Y-107190476D01*
X149535714Y-107095238D01*
X149630952Y-107000000D01*
X149773809Y-106952380D01*
X149869047Y-106952380D01*
X150011904Y-107000000D01*
X150059523Y-107047619D01*
X151440476Y-106952380D02*
X151630952Y-106952380D01*
X151726190Y-107000000D01*
X151821428Y-107095238D01*
X151869047Y-107285714D01*
X151869047Y-107619047D01*
X151821428Y-107809523D01*
X151726190Y-107904761D01*
X151630952Y-107952380D01*
X151440476Y-107952380D01*
X151345238Y-107904761D01*
X151250000Y-107809523D01*
X151202380Y-107619047D01*
X151202380Y-107285714D01*
X151250000Y-107095238D01*
X151345238Y-107000000D01*
X151440476Y-106952380D01*
X152726190Y-107285714D02*
X152726190Y-107952380D01*
X152297619Y-107285714D02*
X152297619Y-107809523D01*
X152345238Y-107904761D01*
X152440476Y-107952380D01*
X152583333Y-107952380D01*
X152678571Y-107904761D01*
X152726190Y-107857142D01*
X153059523Y-107285714D02*
X153440476Y-107285714D01*
X153202380Y-106952380D02*
X153202380Y-107809523D01*
X153250000Y-107904761D01*
X153345238Y-107952380D01*
X153440476Y-107952380D01*
X155059523Y-107952380D02*
X154488095Y-107952380D01*
X154773809Y-107952380D02*
X154773809Y-106952380D01*
X154678571Y-107095238D01*
X154583333Y-107190476D01*
X154488095Y-107238095D01*
X148488095Y-102952380D02*
X148488095Y-101952380D01*
X148726190Y-101952380D01*
X148869047Y-102000000D01*
X148964285Y-102095238D01*
X149011904Y-102190476D01*
X149059523Y-102380952D01*
X149059523Y-102523809D01*
X149011904Y-102714285D01*
X148964285Y-102809523D01*
X148869047Y-102904761D01*
X148726190Y-102952380D01*
X148488095Y-102952380D01*
X150059523Y-102857142D02*
X150011904Y-102904761D01*
X149869047Y-102952380D01*
X149773809Y-102952380D01*
X149630952Y-102904761D01*
X149535714Y-102809523D01*
X149488095Y-102714285D01*
X149440476Y-102523809D01*
X149440476Y-102380952D01*
X149488095Y-102190476D01*
X149535714Y-102095238D01*
X149630952Y-102000000D01*
X149773809Y-101952380D01*
X149869047Y-101952380D01*
X150011904Y-102000000D01*
X150059523Y-102047619D01*
X151440476Y-101952380D02*
X151630952Y-101952380D01*
X151726190Y-102000000D01*
X151821428Y-102095238D01*
X151869047Y-102285714D01*
X151869047Y-102619047D01*
X151821428Y-102809523D01*
X151726190Y-102904761D01*
X151630952Y-102952380D01*
X151440476Y-102952380D01*
X151345238Y-102904761D01*
X151250000Y-102809523D01*
X151202380Y-102619047D01*
X151202380Y-102285714D01*
X151250000Y-102095238D01*
X151345238Y-102000000D01*
X151440476Y-101952380D01*
X152726190Y-102285714D02*
X152726190Y-102952380D01*
X152297619Y-102285714D02*
X152297619Y-102809523D01*
X152345238Y-102904761D01*
X152440476Y-102952380D01*
X152583333Y-102952380D01*
X152678571Y-102904761D01*
X152726190Y-102857142D01*
X153059523Y-102285714D02*
X153440476Y-102285714D01*
X153202380Y-101952380D02*
X153202380Y-102809523D01*
X153250000Y-102904761D01*
X153345238Y-102952380D01*
X153440476Y-102952380D01*
X154488095Y-102047619D02*
X154535714Y-102000000D01*
X154630952Y-101952380D01*
X154869047Y-101952380D01*
X154964285Y-102000000D01*
X155011904Y-102047619D01*
X155059523Y-102142857D01*
X155059523Y-102238095D01*
X155011904Y-102380952D01*
X154440476Y-102952380D01*
X155059523Y-102952380D01*
X151202380Y-81511904D02*
X151250000Y-81559523D01*
X151297619Y-81654761D01*
X151297619Y-81892857D01*
X151250000Y-81988095D01*
X151202380Y-82035714D01*
X151107142Y-82083333D01*
X151011904Y-82083333D01*
X150869047Y-82035714D01*
X150297619Y-81464285D01*
X150297619Y-82083333D01*
X151297619Y-82416666D02*
X151297619Y-83035714D01*
X150916666Y-82702380D01*
X150916666Y-82845238D01*
X150869047Y-82940476D01*
X150821428Y-82988095D01*
X150726190Y-83035714D01*
X150488095Y-83035714D01*
X150392857Y-82988095D01*
X150345238Y-82940476D01*
X150297619Y-82845238D01*
X150297619Y-82559523D01*
X150345238Y-82464285D01*
X150392857Y-82416666D01*
X151297619Y-83654761D02*
X151297619Y-83750000D01*
X151250000Y-83845238D01*
X151202380Y-83892857D01*
X151107142Y-83940476D01*
X150916666Y-83988095D01*
X150678571Y-83988095D01*
X150488095Y-83940476D01*
X150392857Y-83892857D01*
X150345238Y-83845238D01*
X150297619Y-83750000D01*
X150297619Y-83654761D01*
X150345238Y-83559523D01*
X150392857Y-83511904D01*
X150488095Y-83464285D01*
X150678571Y-83416666D01*
X150916666Y-83416666D01*
X151107142Y-83464285D01*
X151202380Y-83511904D01*
X151250000Y-83559523D01*
X151297619Y-83654761D01*
X151297619Y-84273809D02*
X150297619Y-84607142D01*
X151297619Y-84940476D01*
X150583333Y-85226190D02*
X150583333Y-85702380D01*
X150297619Y-85130952D02*
X151297619Y-85464285D01*
X150297619Y-85797619D01*
X150392857Y-86702380D02*
X150345238Y-86654761D01*
X150297619Y-86511904D01*
X150297619Y-86416666D01*
X150345238Y-86273809D01*
X150440476Y-86178571D01*
X150535714Y-86130952D01*
X150726190Y-86083333D01*
X150869047Y-86083333D01*
X151059523Y-86130952D01*
X151154761Y-86178571D01*
X151250000Y-86273809D01*
X151297619Y-86416666D01*
X151297619Y-86511904D01*
X151250000Y-86654761D01*
X151202380Y-86702380D01*
X150297619Y-87892857D02*
X151297619Y-87892857D01*
X150297619Y-88369047D02*
X151297619Y-88369047D01*
X150297619Y-88940476D01*
X151297619Y-88940476D01*
D11*
X175977064Y-77735000D02*
X175522936Y-77735000D01*
X175977064Y-76265000D02*
X175522936Y-76265000D01*
X175977064Y-114485000D02*
X175522936Y-114485000D01*
X175977064Y-113015000D02*
X175522936Y-113015000D01*
X182811130Y-78079837D02*
G75*
G02*
X180729039Y-78080000I-1041130J1079837D01*
G01*
X182811130Y-75920163D02*
G75*
G03*
X180729039Y-75920000I-1041130J-1079837D01*
G01*
X183442335Y-78078608D02*
G75*
G02*
X180210000Y-78235516I-1672335J1078608D01*
G01*
X183442335Y-75921392D02*
G75*
G03*
X180210000Y-75764484I-1672335J-1078608D01*
G01*
X180210000Y-75764000D02*
X180210000Y-75920000D01*
X180210000Y-78080000D02*
X180210000Y-78236000D01*
X182811130Y-114829837D02*
G75*
G02*
X180729039Y-114830000I-1041130J1079837D01*
G01*
X182811130Y-112670163D02*
G75*
G03*
X180729039Y-112670000I-1041130J-1079837D01*
G01*
X183442335Y-114828608D02*
G75*
G02*
X180210000Y-114985516I-1672335J1078608D01*
G01*
X183442335Y-112671392D02*
G75*
G03*
X180210000Y-112514484I-1672335J-1078608D01*
G01*
X180210000Y-112514000D02*
X180210000Y-112670000D01*
X180210000Y-114830000D02*
X180210000Y-114986000D01*
X164500000Y-96450000D02*
X183100000Y-96450000D01*
X164500000Y-109350000D02*
X183100000Y-109350000D01*
X164500000Y-96450000D02*
X164500000Y-109350000D01*
X183100000Y-96450000D02*
X183100000Y-109350000D01*
X183100000Y-94250000D02*
X164500000Y-94250000D01*
X183100000Y-81350000D02*
X164500000Y-81350000D01*
X183100000Y-94250000D02*
X183100000Y-81350000D01*
X164500000Y-94250000D02*
X164500000Y-81350000D01*
X190500000Y-81350000D02*
X188500000Y-81350000D01*
X238620000Y-81680000D02*
X238620000Y-109120000D01*
X185980000Y-81680000D02*
X238620000Y-81680000D01*
X185980000Y-109120000D02*
X238620000Y-109120000D01*
X185980000Y-81680000D02*
X185980000Y-109120000D01*
X155920000Y-111450000D02*
X158580000Y-111450000D01*
X155920000Y-103770000D02*
X155920000Y-111450000D01*
X158580000Y-103770000D02*
X158580000Y-111450000D01*
X155920000Y-103770000D02*
X158580000Y-103770000D01*
X155920000Y-102500000D02*
X155920000Y-101170000D01*
X155920000Y-101170000D02*
X157250000Y-101170000D01*
X151750000Y-80210000D02*
X151750000Y-90370000D01*
X161750000Y-80210000D02*
X151750000Y-80210000D01*
X161750000Y-90370000D02*
X161750000Y-80210000D01*
X151750000Y-90370000D02*
X161750000Y-90370000D01*
X152750000Y-90370000D02*
X152750000Y-80210000D01*
X155570000Y-95500000D02*
G75*
G03*
X155570000Y-95500000I-4360000J0D01*
G01*
D10*
X175583333Y-79102380D02*
X175250000Y-78626190D01*
X175011904Y-79102380D02*
X175011904Y-78102380D01*
X175392857Y-78102380D01*
X175488095Y-78150000D01*
X175535714Y-78197619D01*
X175583333Y-78292857D01*
X175583333Y-78435714D01*
X175535714Y-78530952D01*
X175488095Y-78578571D01*
X175392857Y-78626190D01*
X175011904Y-78626190D01*
X175964285Y-78197619D02*
X176011904Y-78150000D01*
X176107142Y-78102380D01*
X176345238Y-78102380D01*
X176440476Y-78150000D01*
X176488095Y-78197619D01*
X176535714Y-78292857D01*
X176535714Y-78388095D01*
X176488095Y-78530952D01*
X175916666Y-79102380D01*
X176535714Y-79102380D01*
X175583333Y-112452380D02*
X175250000Y-111976190D01*
X175011904Y-112452380D02*
X175011904Y-111452380D01*
X175392857Y-111452380D01*
X175488095Y-111500000D01*
X175535714Y-111547619D01*
X175583333Y-111642857D01*
X175583333Y-111785714D01*
X175535714Y-111880952D01*
X175488095Y-111928571D01*
X175392857Y-111976190D01*
X175011904Y-111976190D01*
X176535714Y-112452380D02*
X175964285Y-112452380D01*
X176250000Y-112452380D02*
X176250000Y-111452380D01*
X176154761Y-111595238D01*
X176059523Y-111690476D01*
X175964285Y-111738095D01*
X181031904Y-80202380D02*
X181031904Y-79202380D01*
X181270000Y-79202380D01*
X181412857Y-79250000D01*
X181508095Y-79345238D01*
X181555714Y-79440476D01*
X181603333Y-79630952D01*
X181603333Y-79773809D01*
X181555714Y-79964285D01*
X181508095Y-80059523D01*
X181412857Y-80154761D01*
X181270000Y-80202380D01*
X181031904Y-80202380D01*
X181984285Y-79297619D02*
X182031904Y-79250000D01*
X182127142Y-79202380D01*
X182365238Y-79202380D01*
X182460476Y-79250000D01*
X182508095Y-79297619D01*
X182555714Y-79392857D01*
X182555714Y-79488095D01*
X182508095Y-79630952D01*
X181936666Y-80202380D01*
X182555714Y-80202380D01*
X181011904Y-111452380D02*
X181011904Y-110452380D01*
X181250000Y-110452380D01*
X181392857Y-110500000D01*
X181488095Y-110595238D01*
X181535714Y-110690476D01*
X181583333Y-110880952D01*
X181583333Y-111023809D01*
X181535714Y-111214285D01*
X181488095Y-111309523D01*
X181392857Y-111404761D01*
X181250000Y-111452380D01*
X181011904Y-111452380D01*
X182535714Y-111452380D02*
X181964285Y-111452380D01*
X182250000Y-111452380D02*
X182250000Y-110452380D01*
X182154761Y-110595238D01*
X182059523Y-110690476D01*
X181964285Y-110738095D01*
X164916666Y-110654761D02*
X165059523Y-110702380D01*
X165297619Y-110702380D01*
X165392857Y-110654761D01*
X165440476Y-110607142D01*
X165488095Y-110511904D01*
X165488095Y-110416666D01*
X165440476Y-110321428D01*
X165392857Y-110273809D01*
X165297619Y-110226190D01*
X165107142Y-110178571D01*
X165011904Y-110130952D01*
X164964285Y-110083333D01*
X164916666Y-109988095D01*
X164916666Y-109892857D01*
X164964285Y-109797619D01*
X165011904Y-109750000D01*
X165107142Y-109702380D01*
X165345238Y-109702380D01*
X165488095Y-109750000D01*
X165821428Y-109702380D02*
X166059523Y-110702380D01*
X166250000Y-109988095D01*
X166440476Y-110702380D01*
X166678571Y-109702380D01*
X167583333Y-110702380D02*
X167011904Y-110702380D01*
X167297619Y-110702380D02*
X167297619Y-109702380D01*
X167202380Y-109845238D01*
X167107142Y-109940476D01*
X167011904Y-109988095D01*
X164666666Y-80654761D02*
X164809523Y-80702380D01*
X165047619Y-80702380D01*
X165142857Y-80654761D01*
X165190476Y-80607142D01*
X165238095Y-80511904D01*
X165238095Y-80416666D01*
X165190476Y-80321428D01*
X165142857Y-80273809D01*
X165047619Y-80226190D01*
X164857142Y-80178571D01*
X164761904Y-80130952D01*
X164714285Y-80083333D01*
X164666666Y-79988095D01*
X164666666Y-79892857D01*
X164714285Y-79797619D01*
X164761904Y-79750000D01*
X164857142Y-79702380D01*
X165095238Y-79702380D01*
X165238095Y-79750000D01*
X165571428Y-79702380D02*
X165809523Y-80702380D01*
X166000000Y-79988095D01*
X166190476Y-80702380D01*
X166428571Y-79702380D01*
X166761904Y-79797619D02*
X166809523Y-79750000D01*
X166904761Y-79702380D01*
X167142857Y-79702380D01*
X167238095Y-79750000D01*
X167285714Y-79797619D01*
X167333333Y-79892857D01*
X167333333Y-79988095D01*
X167285714Y-80130952D01*
X166714285Y-80702380D01*
X167333333Y-80702380D01*
X210785714Y-81452380D02*
X210785714Y-80452380D01*
X211166666Y-80452380D01*
X211261904Y-80500000D01*
X211309523Y-80547619D01*
X211357142Y-80642857D01*
X211357142Y-80785714D01*
X211309523Y-80880952D01*
X211261904Y-80928571D01*
X211166666Y-80976190D01*
X210785714Y-80976190D01*
X211738095Y-81404761D02*
X211880952Y-81452380D01*
X212119047Y-81452380D01*
X212214285Y-81404761D01*
X212261904Y-81357142D01*
X212309523Y-81261904D01*
X212309523Y-81166666D01*
X212261904Y-81071428D01*
X212214285Y-81023809D01*
X212119047Y-80976190D01*
X211928571Y-80928571D01*
X211833333Y-80880952D01*
X211785714Y-80833333D01*
X211738095Y-80738095D01*
X211738095Y-80642857D01*
X211785714Y-80547619D01*
X211833333Y-80500000D01*
X211928571Y-80452380D01*
X212166666Y-80452380D01*
X212309523Y-80500000D01*
X213261904Y-81452380D02*
X212690476Y-81452380D01*
X212976190Y-81452380D02*
X212976190Y-80452380D01*
X212880952Y-80595238D01*
X212785714Y-80690476D01*
X212690476Y-80738095D01*
X156416666Y-94428571D02*
X156083333Y-94428571D01*
X156083333Y-94952380D02*
X156083333Y-93952380D01*
X156559523Y-93952380D01*
X157464285Y-94952380D02*
X156892857Y-94952380D01*
X157178571Y-94952380D02*
X157178571Y-93952380D01*
X157083333Y-94095238D01*
X156988095Y-94190476D01*
X156892857Y-94238095D01*
%LPC*%
D12*
X142500000Y-114000000D03*
X142500000Y-99000000D03*
X142500000Y-92000000D03*
X142500000Y-77000000D03*
G36*
G01*
X175350000Y-76549999D02*
X175350000Y-77450001D01*
G75*
G02*
X175100001Y-77700000I-249999J0D01*
G01*
X174399999Y-77700000D01*
G75*
G02*
X174150000Y-77450001I0J249999D01*
G01*
X174150000Y-76549999D01*
G75*
G02*
X174399999Y-76300000I249999J0D01*
G01*
X175100001Y-76300000D01*
G75*
G02*
X175350000Y-76549999I0J-249999D01*
G01*
G37*
G36*
G01*
X177350000Y-76549999D02*
X177350000Y-77450001D01*
G75*
G02*
X177100001Y-77700000I-249999J0D01*
G01*
X176399999Y-77700000D01*
G75*
G02*
X176150000Y-77450001I0J249999D01*
G01*
X176150000Y-76549999D01*
G75*
G02*
X176399999Y-76300000I249999J0D01*
G01*
X177100001Y-76300000D01*
G75*
G02*
X177350000Y-76549999I0J-249999D01*
G01*
G37*
G36*
G01*
X175350000Y-113299999D02*
X175350000Y-114200001D01*
G75*
G02*
X175100001Y-114450000I-249999J0D01*
G01*
X174399999Y-114450000D01*
G75*
G02*
X174150000Y-114200001I0J249999D01*
G01*
X174150000Y-113299999D01*
G75*
G02*
X174399999Y-113050000I249999J0D01*
G01*
X175100001Y-113050000D01*
G75*
G02*
X175350000Y-113299999I0J-249999D01*
G01*
G37*
G36*
G01*
X177350000Y-113299999D02*
X177350000Y-114200001D01*
G75*
G02*
X177100001Y-114450000I-249999J0D01*
G01*
X176399999Y-114450000D01*
G75*
G02*
X176150000Y-114200001I0J249999D01*
G01*
X176150000Y-113299999D01*
G75*
G02*
X176399999Y-113050000I249999J0D01*
G01*
X177100001Y-113050000D01*
G75*
G02*
X177350000Y-113299999I0J-249999D01*
G01*
G37*
D13*
X183040000Y-77000000D03*
D14*
X180500000Y-77000000D03*
D13*
X183040000Y-113750000D03*
D14*
X180500000Y-113750000D03*
D15*
X178900000Y-107250000D03*
X168700000Y-107250000D03*
X178900000Y-98550000D03*
X168700000Y-98550000D03*
D12*
X191750000Y-113750000D03*
X191750000Y-77000000D03*
X149500000Y-114000000D03*
X149500000Y-77000000D03*
D15*
X168700000Y-83450000D03*
X178900000Y-83450000D03*
X168700000Y-92150000D03*
X178900000Y-92150000D03*
D16*
X189500000Y-85000000D03*
D15*
X234500000Y-97800000D03*
X189500000Y-105800000D03*
X234500000Y-105800000D03*
D17*
X157250000Y-110120000D03*
X157250000Y-107580000D03*
X157250000Y-105040000D03*
D18*
X157250000Y-102500000D03*
D15*
X156750000Y-87830000D03*
D16*
X156750000Y-82750000D03*
D19*
X148670000Y-95500000D03*
X153750000Y-95500000D03*
M02*
