M48
; DRILL file {KiCad (5.1.10)-1} date 08/09/21 14:04:46
; FORMAT={-:-/ absolute / metric / decimal}
; #@! TF.CreationDate,2021-08-09T14:04:46+02:00
; #@! TF.GenerationSoftware,Kicad,Pcbnew,(5.1.10)-1
; #@! TF.FileFunction,Plated,1,2,PTH
FMAT,2
METRIC
T1C0.900
T2C1.000
T3C1.500
T4C1.520
T5C1.700
%
G90
G05
T1
X180.5Y-77.0
X180.5Y-113.75
X183.04Y-77.0
X183.04Y-113.75
T2
X148.67Y-95.5
X153.75Y-95.5
X157.25Y-102.5
X157.25Y-105.04
X157.25Y-107.58
X157.25Y-110.12
T3
X189.5Y-85.0
X189.5Y-105.8
X234.5Y-97.8
X234.5Y-105.8
T4
X156.75Y-82.75
X156.75Y-87.83
T5
X168.7Y-83.45
X168.7Y-92.15
X168.7Y-98.55
X168.7Y-107.25
X178.9Y-83.45
X178.9Y-92.15
X178.9Y-98.55
X178.9Y-107.25
T0
M30
